<svg width="244" height="40" fill="none" xmlns="http://www.w3.org/2000/svg"><path d="M15.936 21.364l-.022-9.164-4.494 7.55H9.827l-4.473-7.354v8.968H2.038V6.09h2.924l5.716 9.49 5.63-9.49h2.901l.044 15.273h-3.317zm15.035-5.411v5.41h-3.535V15.91l-5.913-9.818h3.753l4.08 6.785 4.08-6.785h3.47l-5.935 9.862zM46.09 6.09h6.938c1.658 0 3.12.32 4.385.96 1.28.625 2.27 1.513 2.967 2.662.713 1.149 1.07 2.487 1.07 4.014 0 1.528-.357 2.866-1.07 4.015-.698 1.149-1.687 2.043-2.967 2.683-1.266.626-2.727.939-4.386.939H46.09V6.09zm6.763 12.37c1.527 0 2.742-.421 3.644-1.265.916-.858 1.374-2.014 1.374-3.469 0-1.454-.458-2.603-1.374-3.447-.902-.858-2.117-1.287-3.644-1.287h-3.23v9.469h3.23zm23.85.066v2.837H64.88V6.09h11.542v2.836h-8.029v3.317h7.091v2.749h-7.09v3.534h8.312zm18.05-12.435L88.14 21.364h-3.49L78.06 6.09h3.819L86.526 17 91.24 6.09h3.513zm13.864 12.436v2.837H96.79V6.09h11.542v2.836h-8.029v3.317h7.091v2.749h-7.091v3.534h8.313zm3.576-12.436h3.534v12.393h7.658v2.88h-11.192V6.09zm21.072 15.534c-1.586 0-3.019-.341-4.299-1.025a7.743 7.743 0 01-2.989-2.815c-.712-1.207-1.069-2.56-1.069-4.058 0-1.498.357-2.843 1.069-4.036a7.692 7.692 0 012.989-2.836c1.28-.684 2.713-1.026 4.299-1.026 1.585 0 3.01.342 4.276 1.026a7.685 7.685 0 012.989 2.836c.727 1.193 1.091 2.538 1.091 4.036 0 1.498-.364 2.851-1.091 4.058-.727 1.193-1.724 2.131-2.989 2.815-1.266.684-2.691 1.025-4.276 1.025zm0-3.01c.901 0 1.716-.204 2.443-.611a4.463 4.463 0 001.702-1.746c.422-.742.633-1.585.633-2.53 0-.946-.211-1.79-.633-2.532a4.313 4.313 0 00-1.702-1.723c-.727-.422-1.542-.633-2.443-.633-.902 0-1.717.21-2.444.633a4.465 4.465 0 00-1.724 1.723c-.407.742-.611 1.586-.611 2.531 0 .946.204 1.79.611 2.531a4.623 4.623 0 001.724 1.746c.727.407 1.542.61 2.444.61zM151.651 6.09c1.353 0 2.523.225 3.513.676 1.003.451 1.774 1.091 2.312 1.92.538.83.808 1.811.808 2.946 0 1.12-.27 2.102-.808 2.945-.538.83-1.309 1.47-2.312 1.92-.99.437-2.16.655-3.513.655h-3.077v4.21h-3.534V6.092h6.611zm-.197 8.182c1.062 0 1.87-.226 2.422-.677.553-.465.829-1.12.829-1.963 0-.858-.276-1.513-.829-1.964-.552-.465-1.36-.698-2.422-.698h-2.88v5.302h2.88zm24.015 7.09l-.022-9.163-4.494 7.55h-1.593l-4.473-7.354v8.968h-3.316V6.09h2.923l5.717 9.49 5.629-9.49h2.902l.043 15.273h-3.316zm19.529-2.836v2.837h-11.825V6.09h11.541v2.836h-8.029v3.317h7.091v2.749h-7.091v3.534h8.313zM212.581 6.09v15.273h-2.902l-7.614-9.273v9.273h-3.491V6.09h2.924l7.592 9.273V6.09h3.491zm7.541 2.88h-4.888V6.09h13.31v2.88h-4.888v12.393h-3.534V8.97zm15.999 12.654c-1.207 0-2.378-.16-3.513-.48-1.12-.334-2.022-.763-2.705-1.287l1.2-2.662c.654.48 1.432.866 2.334 1.157.902.29 1.804.436 2.706.436 1.003 0 1.745-.145 2.225-.436.48-.306.72-.706.72-1.2 0-.364-.145-.662-.436-.895-.277-.247-.64-.443-1.091-.589a20.593 20.593 0 00-1.789-.48c-1.164-.276-2.117-.553-2.858-.829a4.724 4.724 0 01-1.92-1.33c-.524-.612-.786-1.426-.786-2.444a4.2 4.2 0 01.72-2.4c.48-.728 1.2-1.302 2.16-1.724.975-.422 2.16-.633 3.556-.633.975 0 1.928.116 2.859.35.931.232 1.745.566 2.443 1.003l-1.091 2.683c-1.411-.8-2.821-1.2-4.232-1.2-.989 0-1.724.16-2.204.48-.465.32-.698.742-.698 1.266s.269.916.807 1.178c.553.247 1.389.495 2.509.742 1.164.276 2.117.553 2.858.829a4.653 4.653 0 011.899 1.31c.538.595.807 1.403.807 2.42 0 .874-.247 1.674-.742 2.4-.48.714-1.207 1.28-2.182 1.703-.974.422-2.16.633-3.556.633zM26.407 37.273l-.01-5.564-2.76 4.636h-.503l-2.76-4.603v5.53h-1.047v-7.636h.895l3.185 5.367 3.142-5.367h.895l.01 7.637h-1.047zm7.168.087c-.77 0-1.465-.167-2.083-.502a3.83 3.83 0 01-1.462-1.407 3.878 3.878 0 01-.524-1.997c0-.734.175-1.4.524-1.996a3.75 3.75 0 011.462-1.396c.618-.342 1.312-.513 2.083-.513.764 0 1.455.17 2.073.513.618.334 1.102.8 1.45 1.396.35.589.525 1.255.525 1.996a3.9 3.9 0 01-.524 2.008 3.774 3.774 0 01-1.451 1.396c-.618.335-1.31.502-2.073.502zm0-.971a2.97 2.97 0 001.506-.382 2.76 2.76 0 001.058-1.047c.262-.451.393-.953.393-1.506 0-.552-.131-1.05-.393-1.494a2.739 2.739 0 00-1.058-1.058 2.97 2.97 0 00-1.506-.382c-.56 0-1.069.127-1.527.382a2.83 2.83 0 00-1.07 1.058 2.95 2.95 0 00-.38 1.494c0 .553.126 1.055.38 1.506.263.443.62.792 1.07 1.047a3.09 3.09 0 001.527.382zm6.097-6.753h3.218c.807 0 1.524.16 2.149.48.625.32 1.11.771 1.45 1.353.35.574.525 1.236.525 1.985 0 .75-.175 1.415-.524 1.997a3.501 3.501 0 01-1.451 1.341c-.625.32-1.342.48-2.15.48h-3.217v-7.636zm3.153 6.687c.618 0 1.16-.12 1.625-.36.473-.24.836-.574 1.09-1.003.255-.437.383-.938.383-1.506 0-.567-.128-1.065-.382-1.494a2.585 2.585 0 00-1.091-1.015c-.466-.24-1.007-.36-1.626-.36h-2.061v5.738h2.062zm11.783 0v.95h-5.542v-7.637h5.39v.95h-4.299v2.345h3.83v.927h-3.83v2.465h4.451zm7.254.95l-1.648-2.346a7.107 7.107 0 01-.48.022h-1.887v2.324h-1.09v-7.637h2.977c.99 0 1.768.236 2.335.71.567.472.85 1.123.85 1.952 0 .589-.145 1.09-.435 1.505-.291.415-.706.717-1.244.906l1.81 2.563h-1.188zm-2.16-3.251c.69 0 1.218-.15 1.581-.448.364-.298.546-.723.546-1.276s-.182-.975-.546-1.266c-.363-.298-.89-.447-1.581-.447h-1.855v3.437h1.855zm11.93-4.386v7.637h-.895l-4.582-5.695v5.695h-1.09v-7.637h.894l4.582 5.695v-5.695h1.09zm16.768 0l-2.553 7.637h-1.145l-2.084-6.099-2.084 6.099h-1.167l-2.553-7.637h1.124L80 35.843l2.149-6.207h1.004l2.105 6.24 2.106-6.24H88.4zm7.258 6.687v.95h-5.542v-7.637h5.39v.95h-4.299v2.345h3.83v.927h-3.83v2.465h4.451zm7.286-3.01c.444.123.793.349 1.048.676.254.32.382.727.382 1.222 0 .662-.251 1.17-.753 1.527-.495.356-1.218.535-2.171.535h-3.644v-7.637h3.426c.872 0 1.545.175 2.018.524.48.349.72.832.72 1.45 0 .4-.095.746-.284 1.037-.182.29-.429.513-.742.666zm-4.047-2.793v2.443h2.237c.56 0 .989-.101 1.287-.305.305-.211.458-.516.458-.916s-.153-.702-.458-.906c-.298-.21-.727-.316-1.287-.316h-2.237zm2.509 5.869c.618 0 1.084-.102 1.397-.306.312-.203.469-.523.469-.96 0-.85-.622-1.276-1.866-1.276h-2.509v2.542h2.509zm7.264.97a5.371 5.371 0 01-1.669-.261c-.531-.182-.949-.415-1.255-.698l.404-.851c.291.262.662.476 1.113.644.458.16.927.24 1.407.24.633 0 1.105-.106 1.418-.317.313-.218.469-.505.469-.862a.816.816 0 00-.262-.632 1.621 1.621 0 00-.632-.382c-.248-.087-.6-.186-1.059-.295a11.27 11.27 0 01-1.396-.414 2.372 2.372 0 01-.905-.633c-.248-.291-.371-.68-.371-1.167 0-.408.105-.775.316-1.102.218-.327.546-.59.982-.786.436-.196.978-.294 1.625-.294.451 0 .895.058 1.331.174.437.117.811.284 1.124.502l-.36.873a3.82 3.82 0 00-1.026-.458 3.705 3.705 0 00-1.069-.164c-.618 0-1.083.113-1.396.338-.305.226-.458.517-.458.873a.85.85 0 00.262.644c.174.16.389.287.643.381.262.088.615.182 1.058.284.575.138 1.037.276 1.386.415.349.138.647.349.894.632.255.284.382.666.382 1.146 0 .4-.109.767-.327 1.102-.218.327-.549.589-.993.785-.443.19-.989.284-1.636.284zm4.932-7.723h1.091v7.637h-1.091v-7.637zm5.275.95h-2.618v-.95h6.316v.95h-2.618v6.687h-1.08v-6.688zm10.81 5.737v.95h-5.542v-7.637h5.389v.95h-4.298v2.345h3.829v.927h-3.829v2.465h4.451zm5.46-6.687h3.218c.807 0 1.524.16 2.149.48.625.32 1.109.771 1.451 1.353.349.574.524 1.236.524 1.985 0 .75-.175 1.415-.524 1.997a3.505 3.505 0 01-1.451 1.341c-.625.32-1.342.48-2.149.48h-3.218v-7.636zm3.152 6.687c.619 0 1.16-.12 1.626-.36.473-.24.836-.574 1.091-1.003.254-.437.382-.938.382-1.506 0-.567-.128-1.065-.382-1.494a2.586 2.586 0 00-1.091-1.015c-.466-.24-1.007-.36-1.626-.36h-2.061v5.738h2.061zm11.784 0v.95h-5.542v-7.637h5.389v.95h-4.298v2.345h3.829v.927h-3.829v2.465h4.451zm8.675-6.687l-3.349 7.637h-1.08l-3.36-7.637h1.178l2.749 6.273 2.771-6.273h1.091zm6.897 6.687v.95h-5.542v-7.637h5.389v.95h-4.298v2.345h3.829v.927h-3.829v2.465h4.451zm2.148-6.687h1.091v6.687h4.135v.95h-5.226v-7.637zm10.168 7.724c-.771 0-1.465-.167-2.083-.502a3.82 3.82 0 01-1.462-1.407 3.88 3.88 0 01-.524-1.997c0-.734.175-1.4.524-1.996a3.742 3.742 0 011.462-1.396c.618-.342 1.312-.513 2.083-.513.764 0 1.455.17 2.073.513.618.334 1.102.8 1.451 1.396.349.589.524 1.255.524 1.996a3.9 3.9 0 01-.524 2.008 3.775 3.775 0 01-1.451 1.396c-.618.335-1.309.502-2.073.502zm0-.971c.56 0 1.062-.127 1.506-.382a2.763 2.763 0 001.058-1.047c.262-.451.393-.953.393-1.506 0-.552-.131-1.05-.393-1.494a2.742 2.742 0 00-1.058-1.058 2.973 2.973 0 00-1.506-.382 3.09 3.09 0 00-1.527.382 2.818 2.818 0 00-1.069 1.058 2.945 2.945 0 00-.382 1.494c0 .553.127 1.055.382 1.506a2.85 2.85 0 001.069 1.047 3.09 3.09 0 001.527.382zm9.075-6.753c.989 0 1.767.236 2.334.71.568.472.851 1.123.851 1.952s-.283 1.48-.851 1.953c-.567.472-1.345.709-2.334.709h-1.887v2.313h-1.091v-7.637h2.978zm-.033 4.375c.691 0 1.218-.146 1.582-.437.364-.298.545-.723.545-1.276s-.181-.975-.545-1.266c-.364-.298-.891-.447-1.582-.447h-1.854v3.426h1.854zm12.283 3.261l-.011-5.563-2.76 4.636h-.502l-2.76-4.603v5.53h-1.047v-7.636h.894l3.186 5.367 3.142-5.367h.894l.011 7.637h-1.047zm9.263-.949v.95h-5.542v-7.637h5.389v.95h-4.298v2.345h3.829v.927h-3.829v2.465h4.451zm8.715-6.687v7.637h-.895l-4.581-5.695v5.695h-1.091v-7.637h.894l4.582 5.695v-5.695h1.091zm4.184.95h-2.618v-.95h6.316v.95h-2.618v6.687h-1.08v-6.688z" fill="#231F1F"/></svg>